<svg width="96" height="189" viewBox="0 0 96 189" fill="none" xmlns="http://www.w3.org/2000/svg">
<path d="M7.5382 -62.6156C7.64438 -21.3509 7.60898 -19.1605 7.00734 -18.4539C6.65344 -18.0299 4.95469 -16.8288 3.18516 -15.8042L0 -13.9317V-1.2485C0 12.2473 0.106172 13.4485 1.76953 17.1581C3.0082 19.8784 4.9193 21.6096 8.95383 23.6234L12.5637 25.4251V27.5449C12.5637 29.488 12.6698 29.7707 13.8377 31.0778C15.5719 32.9856 20.0665 35.176 23.7117 35.8826C27.4277 36.5892 32.3116 38.1084 32.6302 38.603C32.7717 38.8503 32.8425 43.6198 32.8071 49.2371C32.7009 58.5994 32.7363 59.4826 33.338 60.1186C33.9042 60.7545 33.975 61.673 33.975 69.5162C33.975 77.218 34.0458 78.4898 34.6474 80.2916C35.7799 83.5772 37.9034 85.5204 41.6548 86.6862C42.1148 86.8275 42.1856 87.0749 41.9733 88.0287C41.1593 91.4557 39.4605 93.3635 35.6738 95.0593C30.7191 97.285 26.366 102.902 25.4459 108.272C25.3397 109.05 24.5965 110.993 23.8179 112.583C22.65 114.914 22.4377 115.692 22.6146 116.681C22.8977 118.2 24.0302 119.26 25.729 119.543C26.7907 119.719 27.357 120.214 28.8434 122.051C32.1701 126.22 35.5676 128.622 40.1684 130L42.1148 130.565L42.221 138.762L42.2918 146.958L41.1947 147.912C38.682 150.173 37.9388 153.494 38.1157 162.114L38.2219 167.873L39.5313 168.898C41.3009 170.311 41.4778 171.017 40.3807 172.643C39.6021 173.738 39.4605 174.374 39.4605 176.352C39.4605 178.578 39.5313 178.79 40.5223 179.532C41.9379 180.556 41.8671 181.581 40.3453 183.241C39.1774 184.513 39.1066 184.725 39.1774 186.704L39.2836 188.823L45.937 188.929L52.5551 189V187.834C52.5551 187.198 52.8028 186.35 53.0859 185.962C53.8645 184.937 53.7584 181.651 52.909 180.344C51.9888 178.966 51.9888 176.988 52.909 175.822C53.7584 174.762 54.0061 171.159 53.4752 167.767C53.1921 165.895 53.2275 165.718 54.3246 164.234C55.0678 163.174 55.3863 162.397 55.2802 161.832C55.174 161.337 55.3509 160.065 55.6341 159.005C56.1649 156.992 56.0588 153.953 55.4217 153.176C55.2448 152.964 54.9263 151.834 54.6785 150.668C54.3246 148.937 53.9707 148.301 52.6613 147.029C51.5641 145.934 51.1748 145.298 51.3518 144.874C51.458 144.556 51.6703 141.129 51.7411 137.243C51.9534 129.965 52.1658 128.94 53.5106 128.94C53.7938 128.94 55.4217 127.562 57.1205 125.831C59.9871 123.04 60.341 122.546 61.0134 120.32C61.5089 118.765 61.7566 116.963 61.7566 115.197C61.7566 113.607 62.0752 111.275 62.4998 109.58C63.1723 106.895 63.1723 106.683 62.606 105.835C61.792 104.563 59.8456 104.563 58.5007 105.87C57.9698 106.365 57.4036 106.683 57.262 106.541C57.0851 106.4 56.9435 102.761 56.9081 98.4509L56.8727 90.6078L55.6695 90.3958C53.8999 90.1132 52.2366 89.0886 52.0242 88.2054C51.918 87.7814 51.8473 86.1563 51.918 84.6018L52.0242 81.8108L54.8555 80.4329C58.2884 78.7725 58.8192 78.3132 59.6332 76.4407C60.1995 75.1689 60.2702 73.9323 60.2348 67.3257C60.2348 61.885 60.341 59.5533 60.6241 59.2707C60.9427 58.9527 61.0488 56.5503 61.0488 50.827V42.8425L62.2167 41.288C64.6941 38.0024 66.0035 34.8581 66.0035 32.2437C66.0035 30.7245 67.1714 26.6263 67.8084 25.9551C67.9854 25.7784 68.127 25.3898 68.127 25.0719C68.127 23.7293 70.3212 21.9275 75.2759 19.2425C82.3186 15.4269 82.2832 15.4269 83.9466 13.3425C88.2996 7.90179 94.0329 -1.35449 95.1654 -4.74611C95.6963 -6.22995 95.767 -8.84431 95.7316 -26.1204C95.7316 -44.1383 95.6963 -45.7988 95.13 -46.2228C94.2452 -46.8587 92.4049 -46.7527 90.6 -45.8695C89.7506 -45.4455 88.9013 -45.1982 88.7951 -45.3395C88.5473 -45.5515 88.5827 -54.7018 88.7951 -55.0904C88.8659 -55.1964 89.0428 -60.7078 89.149 -67.3144C89.2906 -73.921 89.5383 -83.7072 89.7506 -89.0419C89.9276 -94.3766 90.0691 -100.383 90.0338 -102.396C89.9984 -105.859 89.963 -106 89.1844 -106H88.4058L88.1581 -94.9773C88.0165 -88.9006 87.8749 -83.6719 87.8749 -83.3892C87.8395 -82.7533 87.2733 -60.4252 87.1317 -53.8539C87.0609 -51.3455 86.9194 -49.0844 86.7778 -48.8725C86.6009 -48.5898 85.6453 -48.6605 83.4511 -49.1551C81.7877 -49.5084 80.3367 -49.897 80.2659 -49.9677C80.1598 -50.0383 79.275 -49.7557 78.2841 -49.2964C77.2931 -48.8371 76.3376 -48.5545 76.1606 -48.6605C75.9837 -48.7665 75.9129 -49.579 76.0545 -50.4976C76.1606 -51.3808 76.3376 -56.009 76.4438 -60.7784C76.5499 -65.5479 76.6915 -70.8826 76.7977 -72.6138C76.9038 -74.3802 77.1516 -81.4461 77.3285 -88.3353C77.5409 -95.2245 77.7886 -102.043 77.8948 -103.456L78.1425 -106H77.0808H76.0191L75.7713 -96.5671C75.6298 -91.3383 75.382 -82.4 75.2051 -76.6766C75.0281 -70.9533 74.7804 -62.6156 74.6388 -58.1994C74.4973 -53.7832 74.2495 -50.0737 74.108 -49.9677C73.931 -49.8617 73.7895 -50.2503 73.7895 -50.8156C73.7895 -52.7587 71.0998 -52.8647 67.95 -51.0982C66.7821 -50.427 63.5262 -48.6958 60.6949 -47.2826C53.3691 -43.5731 43.1058 -37.8497 42.5749 -37.2138C42.2564 -36.8251 42.0441 -34.882 41.9379 -31.1371C41.7255 -24.7778 41.7255 -24.7778 38.4696 -26.1557L36.7355 -26.8976L34.2227 -25.6611C32.8425 -24.9545 31.6392 -24.3892 31.533 -24.3892C31.4269 -24.3892 31.3207 -25.0605 31.3207 -25.9084C31.3207 -27.6042 31.1084 -27.9928 30.0113 -28.5934C28.7372 -29.2647 27.18 -29.0527 24.8796 -27.8868C23.3224 -27.1096 22.65 -26.8976 22.3315 -27.2156C22.0838 -27.4629 21.8714 -35.0234 21.7298 -52.2287C21.5883 -65.7599 21.3759 -83.4246 21.2344 -91.4443C20.9866 -105.788 20.9513 -106 20.2434 -106C19.5356 -106 19.5356 -105.965 19.748 -88.9713C19.8895 -79.5737 20.1019 -61.485 20.2434 -48.7311L20.4558 -25.5904L16.9521 -23.4707C15.041 -22.3401 12.8822 -21.1389 12.1744 -20.8563C11.4312 -20.5737 10.7234 -20.2204 10.5818 -20.079C10.4402 -19.9024 10.0155 -19.7964 9.66164 -19.7964C9.06 -19.7964 9.02461 -21.3509 9.02461 -62.8982V-106H8.24602H7.43203L7.5382 -62.6156ZM19.8188 27.7216L21.6945 28.2868L21.836 30.1239C21.9068 31.1485 22.1191 32.2437 22.2961 32.6323C22.5438 33.1976 22.473 33.2329 21.7298 33.021C20.4558 32.6323 17.2706 30.4772 17.0229 29.806C16.9167 29.5233 16.8105 28.7814 16.8105 28.2162C16.8105 27.015 17.1291 26.9443 19.8188 27.7216ZM26.8969 30.7245C26.8969 31.3605 26.6845 31.9611 26.4722 32.0317C26.1537 32.1377 26.0121 31.7491 26.0121 30.7245C26.0121 29.7 26.1537 29.3114 26.4722 29.382C26.6845 29.488 26.8969 30.0886 26.8969 30.7245ZM47.7773 42.0299C47.7773 43.3725 46.3971 43.2665 46.2556 41.924C46.1494 41.0407 46.2556 40.9347 46.9634 41.0407C47.565 41.1114 47.7773 41.3587 47.7773 42.0299ZM54.4308 108.661C55.3509 108.767 56.0941 108.979 56.0941 109.12C56.0941 109.262 55.7048 110.216 55.2094 111.205C54.7139 112.229 54.3246 113.219 54.3246 113.466C54.3246 113.678 53.9353 114.561 53.4398 115.409C52.5197 116.928 51.4934 117.423 51.4934 116.363C51.4934 115.444 50.1839 113.89 49.0514 113.395C47.6358 112.83 46.2202 113.501 45.3 115.268C44.9107 115.974 44.4506 116.575 44.3091 116.575C44.1321 116.575 43.5305 116.08 42.9642 115.48C41.7609 114.208 41.1593 112.194 41.3009 110.11C41.407 108.661 41.4424 108.626 42.8227 108.378C44.3798 108.131 51.7411 108.308 54.4308 108.661ZM47.1403 136.43C47.0695 137.066 46.9988 136.642 46.9988 135.476C46.9988 134.31 47.0695 133.78 47.1403 134.31C47.2111 134.84 47.2111 135.794 47.1403 136.43ZM50.5378 153.565C50.7855 155.826 48.5559 160.595 47.7773 159.359C47.7066 159.182 47.8835 158.687 48.2374 158.228C49.2991 156.85 49.7946 155.19 49.653 153.671C49.4761 151.834 50.2901 151.728 50.5378 153.565ZM49.016 154.554C49.016 155.649 47.9543 157.84 46.9988 158.687C46.3971 159.217 46.1848 159.253 44.9461 158.829C43.8844 158.44 43.5305 158.157 43.5659 157.592C43.672 153.989 43.7074 153.953 44.3445 154.201C45.5477 154.731 46.7156 154.731 47.6004 154.236C48.8745 153.529 49.016 153.565 49.016 154.554ZM52.2012 182.817C52.2012 184.019 52.1658 184.054 51.2456 183.842C49.7946 183.489 49.2638 182.994 49.7592 182.429C50.0777 182.04 50.467 181.899 51.9534 181.616C52.095 181.616 52.2012 182.146 52.2012 182.817ZM46.2909 182.994C46.0786 183.842 45.7247 183.877 45.1584 183.206C44.8045 182.817 44.8753 182.641 45.3708 182.358C46.1848 181.899 46.5033 182.111 46.2909 182.994ZM42.221 185.644C42.4334 186.138 42.7873 186.527 42.9642 186.527C43.1412 186.527 43.3889 186.774 43.4951 187.092C43.672 187.551 43.5305 187.622 42.8227 187.446C42.1856 187.269 41.8671 187.375 41.7255 187.763C41.3716 188.647 40.8762 187.975 40.8762 186.562C40.8762 184.584 41.5486 184.125 42.221 185.644ZM49.016 186.845C49.016 187.799 48.4852 188.293 47.565 188.293C46.3971 188.293 46.2909 188.081 47.1403 187.163C47.742 186.492 49.016 186.28 49.016 186.845Z" fill="white"/>
</svg>
