<svg width="96" height="272" viewBox="0 0 96 272" fill="none" xmlns="http://www.w3.org/2000/svg">
<path d="M7.5382 20.3844C7.64438 61.6491 7.60898 63.8395 7.00734 64.5461C6.65344 64.9701 4.95469 66.1712 3.18516 67.1958L0 69.0683V81.7515C0 95.2473 0.106172 96.4485 1.76953 100.158C3.0082 102.878 4.9193 104.61 8.95383 106.623L12.5637 108.425V110.545C12.5637 112.488 12.6698 112.771 13.8377 114.078C15.5719 115.986 20.0665 118.176 23.7117 118.883C27.4277 119.589 32.3116 121.108 32.6302 121.603C32.7717 121.85 32.8425 126.62 32.8071 132.237C32.7009 141.599 32.7363 142.483 33.338 143.119C33.9042 143.754 33.975 144.673 33.975 152.516C33.975 160.218 34.0458 161.49 34.6474 163.292C35.7799 166.577 37.9034 168.52 41.6548 169.686C42.1148 169.828 42.1856 170.075 41.9733 171.029C41.1593 174.456 39.4605 176.363 35.6738 178.059C30.7191 180.285 26.366 185.902 25.4459 191.272C25.3397 192.05 24.5965 193.993 23.8179 195.583C22.65 197.914 22.4377 198.692 22.6146 199.681C22.8977 201.2 24.0302 202.26 25.729 202.543C26.7907 202.719 27.357 203.214 28.8434 205.051C32.1701 209.22 35.5676 211.622 40.1684 213L42.1148 213.565L42.221 221.762L42.2918 229.958L41.1947 230.912C38.682 233.173 37.9388 236.494 38.1157 245.114L38.2219 250.873L39.5313 251.898C41.3009 253.311 41.4778 254.017 40.3807 255.643C39.6021 256.738 39.4605 257.374 39.4605 259.352C39.4605 261.578 39.5313 261.79 40.5223 262.532C41.9379 263.556 41.8671 264.581 40.3453 266.241C39.1774 267.513 39.1066 267.725 39.1774 269.704L39.2836 271.823L45.937 271.929L52.5551 272V270.834C52.5551 270.198 52.8028 269.35 53.0859 268.962C53.8645 267.937 53.7584 264.651 52.909 263.344C51.9888 261.966 51.9888 259.988 52.909 258.822C53.7584 257.762 54.0061 254.159 53.4752 250.767C53.1921 248.895 53.2275 248.718 54.3246 247.234C55.0678 246.174 55.3863 245.397 55.2802 244.832C55.174 244.337 55.3509 243.065 55.6341 242.005C56.1649 239.992 56.0588 236.953 55.4217 236.176C55.2448 235.964 54.9263 234.834 54.6785 233.668C54.3246 231.937 53.9707 231.301 52.6613 230.029C51.5641 228.934 51.1748 228.298 51.3518 227.874C51.458 227.556 51.6703 224.129 51.7411 220.243C51.9534 212.965 52.1658 211.94 53.5106 211.94C53.7938 211.94 55.4217 210.562 57.1205 208.831C59.9871 206.04 60.341 205.546 61.0134 203.32C61.5089 201.765 61.7566 199.963 61.7566 198.197C61.7566 196.607 62.0752 194.275 62.4998 192.58C63.1723 189.895 63.1723 189.683 62.606 188.835C61.792 187.563 59.8456 187.563 58.5007 188.87C57.9698 189.365 57.4036 189.683 57.262 189.541C57.0851 189.4 56.9435 185.761 56.9081 181.451L56.8727 173.608L55.6695 173.396C53.8999 173.113 52.2366 172.089 52.0242 171.205C51.918 170.781 51.8473 169.156 51.918 167.602L52.0242 164.811L54.8555 163.433C58.2884 161.772 58.8192 161.313 59.6332 159.441C60.1995 158.169 60.2702 156.932 60.2348 150.326C60.2348 144.885 60.341 142.553 60.6241 142.271C60.9427 141.953 61.0488 139.55 61.0488 133.827V125.843L62.2167 124.288C64.6941 121.002 66.0035 117.858 66.0035 115.244C66.0035 113.725 67.1714 109.626 67.8084 108.955C67.9854 108.778 68.127 108.39 68.127 108.072C68.127 106.729 70.3212 104.928 75.2759 102.243C82.3186 98.4269 82.2832 98.4269 83.9466 96.3425C88.2996 90.9018 94.0329 81.6455 95.1654 78.2539C95.6963 76.7701 95.767 74.1557 95.7316 56.8796C95.7316 38.8617 95.6963 37.2012 95.13 36.7772C94.2452 36.1413 92.4049 36.2473 90.6 37.1305C89.7506 37.5545 88.9013 37.8018 88.7951 37.6605C88.5473 37.4485 88.5827 28.2982 88.7951 27.9096C88.8659 27.8036 89.0428 22.2922 89.149 15.6856C89.2906 9.07904 89.5383 -0.707184 89.7506 -6.04193C89.9276 -11.3766 90.0691 -17.3826 90.0338 -19.3964C89.9984 -22.8587 89.963 -23 89.1844 -23H88.4058L88.1581 -11.9773C88.0165 -5.9006 87.8749 -0.671875 87.8749 -0.389221C87.8395 0.246704 87.2733 22.5748 87.1317 29.1461C87.0609 31.6545 86.9194 33.9156 86.7778 34.1275C86.6009 34.4102 85.6453 34.3395 83.4511 33.8449C81.7877 33.4916 80.3367 33.103 80.2659 33.0323C80.1598 32.9617 79.275 33.2443 78.2841 33.7036C77.2931 34.1629 76.3376 34.4455 76.1606 34.3395C75.9837 34.2335 75.9129 33.421 76.0545 32.5024C76.1606 31.6192 76.3376 26.991 76.4438 22.2216C76.5499 17.4521 76.6915 12.1174 76.7977 10.3862C76.9038 8.61975 77.1516 1.55389 77.3285 -5.33533C77.5409 -12.2245 77.7886 -19.0431 77.8948 -20.4563L78.1425 -23H77.0808H76.0191L75.7713 -13.5671C75.6298 -8.33832 75.382 0.600006 75.2051 6.32336C75.0281 12.0467 74.7804 20.3844 74.6388 24.8006C74.4973 29.2168 74.2495 32.9263 74.108 33.0323C73.931 33.1383 73.7895 32.7497 73.7895 32.1844C73.7895 30.2413 71.0998 30.1353 67.95 31.9018C66.7821 32.573 63.5262 34.3042 60.6949 35.7174C53.3691 39.4269 43.1058 45.1503 42.5749 45.7862C42.2564 46.1749 42.0441 48.118 41.9379 51.8629C41.7255 58.2222 41.7255 58.2222 38.4696 56.8443L36.7355 56.1024L34.2227 57.3389C32.8425 58.0455 31.6392 58.6108 31.533 58.6108C31.4269 58.6108 31.3207 57.9395 31.3207 57.0916C31.3207 55.3958 31.1084 55.0072 30.0113 54.4066C28.7372 53.7353 27.18 53.9473 24.8796 55.1132C23.3224 55.8904 22.65 56.1024 22.3315 55.7844C22.0838 55.5371 21.8714 47.9766 21.7298 30.7713C21.5883 17.2401 21.3759 -0.424561 21.2344 -8.44431C20.9866 -22.788 20.9513 -23 20.2434 -23C19.5356 -23 19.5356 -22.9647 19.748 -5.97125C19.8895 3.42633 20.1019 21.515 20.2434 34.2689L20.4558 57.4096L16.9521 59.5293C15.041 60.6599 12.8822 61.8611 12.1744 62.1437C11.4312 62.4263 10.7234 62.7796 10.5818 62.921C10.4402 63.0976 10.0155 63.2036 9.66164 63.2036C9.06 63.2036 9.02461 61.6491 9.02461 20.1018V-23H8.24602H7.43203L7.5382 20.3844ZM19.8188 110.722L21.6945 111.287L21.836 113.124C21.9068 114.148 22.1191 115.244 22.2961 115.632C22.5438 116.198 22.473 116.233 21.7298 116.021C20.4558 115.632 17.2706 113.477 17.0229 112.806C16.9167 112.523 16.8105 111.781 16.8105 111.216C16.8105 110.015 17.1291 109.944 19.8188 110.722ZM26.8969 113.725C26.8969 114.36 26.6845 114.961 26.4722 115.032C26.1537 115.138 26.0121 114.749 26.0121 113.725C26.0121 112.7 26.1537 112.311 26.4722 112.382C26.6845 112.488 26.8969 113.089 26.8969 113.725ZM47.7773 125.03C47.7773 126.372 46.3971 126.266 46.2556 124.924C46.1494 124.041 46.2556 123.935 46.9634 124.041C47.565 124.111 47.7773 124.359 47.7773 125.03ZM54.4308 191.661C55.3509 191.767 56.0941 191.979 56.0941 192.12C56.0941 192.262 55.7048 193.216 55.2094 194.205C54.7139 195.229 54.3246 196.219 54.3246 196.466C54.3246 196.678 53.9353 197.561 53.4398 198.409C52.5197 199.928 51.4934 200.423 51.4934 199.363C51.4934 198.444 50.1839 196.89 49.0514 196.395C47.6358 195.83 46.2202 196.501 45.3 198.268C44.9107 198.974 44.4506 199.575 44.3091 199.575C44.1321 199.575 43.5305 199.08 42.9642 198.48C41.7609 197.208 41.1593 195.194 41.3009 193.11C41.407 191.661 41.4424 191.626 42.8227 191.378C44.3798 191.131 51.7411 191.308 54.4308 191.661ZM47.1403 219.43C47.0695 220.066 46.9988 219.642 46.9988 218.476C46.9988 217.31 47.0695 216.78 47.1403 217.31C47.2111 217.84 47.2111 218.794 47.1403 219.43ZM50.5378 236.565C50.7855 238.826 48.5559 243.595 47.7773 242.359C47.7066 242.182 47.8835 241.687 48.2374 241.228C49.2991 239.85 49.7946 238.19 49.653 236.671C49.4761 234.834 50.2901 234.728 50.5378 236.565ZM49.016 237.554C49.016 238.649 47.9543 240.84 46.9988 241.687C46.3971 242.217 46.1848 242.253 44.9461 241.829C43.8844 241.44 43.5305 241.157 43.5659 240.592C43.672 236.989 43.7074 236.953 44.3445 237.201C45.5477 237.731 46.7156 237.731 47.6004 237.236C48.8745 236.529 49.016 236.565 49.016 237.554ZM52.2012 265.817C52.2012 267.019 52.1658 267.054 51.2456 266.842C49.7946 266.489 49.2638 265.994 49.7592 265.429C50.0777 265.04 50.467 264.899 51.9534 264.616C52.095 264.616 52.2012 265.146 52.2012 265.817ZM46.2909 265.994C46.0786 266.842 45.7247 266.877 45.1584 266.206C44.8045 265.817 44.8753 265.641 45.3708 265.358C46.1848 264.899 46.5033 265.111 46.2909 265.994ZM42.221 268.644C42.4334 269.138 42.7873 269.527 42.9642 269.527C43.1412 269.527 43.3889 269.774 43.4951 270.092C43.672 270.551 43.5305 270.622 42.8227 270.446C42.1856 270.269 41.8671 270.375 41.7255 270.763C41.3716 271.647 40.8762 270.975 40.8762 269.562C40.8762 267.584 41.5486 267.125 42.221 268.644ZM49.016 269.845C49.016 270.799 48.4852 271.293 47.565 271.293C46.3971 271.293 46.2909 271.081 47.1403 270.163C47.742 269.492 49.016 269.28 49.016 269.845Z" fill="black"/>
</svg>
